<?xml version="1.0" encoding="utf-8"?>
<!-- Generator: Adobe Illustrator 24.3.0, SVG Export Plug-In . SVG Version: 6.00 Build 0)  -->
<svg version="1.1" id="Layer_1" xmlns="http://www.w3.org/2000/svg" xmlns:xlink="http://www.w3.org/1999/xlink" x="0px" y="0px"
	 viewBox="0 0 95.2 392.2" style="enable-background:new 0 0 95.2 392.2;" xml:space="preserve">
<style type="text/css">
	.st0{fill:#FFFFFF;stroke:#FFFFFF;}
	.st1{fill:#FFFFFF;}
</style>
<g>
	<g id="Group_4" transform="translate(140 152.688)">
		<path id="Path_17" class="st0" d="M-119-150.8h-2.5v90.4l2.5-2.3V-150.8z"/>
		<path id="Path_18" class="st0" d="M-121.4,180.9h2.5V59.5l-2.5,3.9V180.9z"/>
		<path id="Path_19" class="st0" d="M-121.4-57.1v2l2.5,1.1v-5.4L-121.4-57.1z"/>
		<path id="Path_20" class="st0" d="M-119-51.4l-2.5-1.1V58.9l2.5-3.9V-51.4z"/>
		<path id="Path_21" class="st0" d="M-115.3,180.9h2.5V49.8l-2.5,3.9V180.9z"/>
		<path id="Path_22" class="st0" d="M-112.9-51.2v-14l-2.5,2.3v10.6L-112.9-51.2z"/>
		<path id="Path_23" class="st0" d="M-115.3-49.7v98.8l2.5-3.9v-93.8L-115.3-49.7z"/>
		<path id="Path_24" class="st0" d="M-112.9-142.4h-2.5v76.2l2.5-2.3V-142.4z"/>
		<path id="Path_25" class="st0" d="M-72-28v8.5l2.5-3.9V-28L-72-28z"/>
		<path id="Path_26" class="st0" d="M-72-15v195.9h2.5V-18.9L-72-15z"/>
		<rect id="Rectangle_2" x="-65.9" y="-23.2" class="st0" width="2.5" height="204.1"/>
		<rect id="Rectangle_3" x="-133.6" y="31.3" class="st0" width="2.5" height="149.6"/>
		<rect id="Rectangle_4" x="-139.7" y="34.4" class="st0" width="2.5" height="146.5"/>
		<rect id="Rectangle_5" x="-127.5" y="28.2" class="st0" width="2.5" height="152.7"/>
		<rect id="Rectangle_6" x="-53.7" y="115.2" class="st0" width="2.5" height="65.7"/>
		<rect id="Rectangle_7" x="-47.6" y="118.2" class="st0" width="2.5" height="62.7"/>
		<rect id="Rectangle_8" x="-59.8" y="112.1" class="st0" width="2.5" height="68.8"/>
		<path id="Path_27" class="st0" d="M-106.6-48.3v-22.8l-2.5,2.3v19.4L-106.6-48.3z"/>
		<path id="Path_28" class="st0" d="M-106.6-135.1h-2.5v63l2.5-2.3V-135.1z"/>
		<path id="Path_29" class="st0" d="M-109-46.8v86l2.5-3.9v-81L-109-46.8z"/>
		<path id="Path_30" class="st0" d="M-109,180.9h2.5V39.8l-2.5,3.9V180.9z"/>
		<path id="Path_31" class="st0" d="M-102.6-43.8V29l2.5-3.9v-67.8L-102.6-43.8z"/>
		<path id="Path_32" class="st0" d="M-102.6,180.9h2.5V29.7l-2.5,3.9V180.9z"/>
		<path id="Path_33" class="st0" d="M-100.2-45.4v-31.9l-2.5,2.3v28.4L-100.2-45.4z"/>
		<path id="Path_34" class="st0" d="M-100.2-129.1h-2.5v50.9l2.5-2.3V-129.1z"/>
		<path id="Path_35" class="st0" d="M-96.4-41v60.2l2.5-3.9v-55.1L-96.4-41z"/>
		<path id="Path_36" class="st0" d="M-96.4,180.9h2.5V19.8l-2.5,3.9V180.9z"/>
		<path id="Path_37" class="st0" d="M-94-42.5v-40.6l-2.5,2.3v37.1L-94-42.5z"/>
		<path id="Path_38" class="st0" d="M-94-121.8h-2.5v37.8l2.5-2.3L-94-121.8z"/>
		<path id="Path_39" class="st0" d="M-90.3-38.2V9.5l2.5-3.9V-37L-90.3-38.2z"/>
		<path id="Path_40" class="st0" d="M-87.8-39.7v-49.2l-2.5,2.3v45.7L-87.8-39.7z"/>
		<path id="Path_41" class="st0" d="M-87.8-114.6h-2.5v24.7l2.5-2.3V-114.6z"/>
		<path id="Path_42" class="st0" d="M-90.3,180.9h2.5V10.1l-2.5,3.9V180.9z"/>
		<path id="Path_43" class="st0" d="M-81.8-107.3h-2.5v11.8l2.5-2.3V-107.3z"/>
		<path id="Path_44" class="st0" d="M-84.3,180.9h2.5V0.5l-2.5,3.9V180.9z"/>
		<path id="Path_45" class="st0" d="M-81.8-36.9v-57.7l-2.5,2.3V-38L-81.8-36.9z"/>
		<path id="Path_46" class="st0" d="M-84.3-35.4v35.3l2.5-3.9v-30.3L-84.3-35.4z"/>
		<path id="Path_47" class="st0" d="M-78.1-35.2l2.5,1.1v-66.4l-2.5,2.3V-35.2z"/>
		<path id="Path_48" class="st0" d="M-78.1,180.9h2.5V-9.3l-2.5,3.9V180.9z"/>
		<path id="Path_49" class="st0" d="M-78.1-32.5v22.6l2.5-3.9v-17.6L-78.1-32.5z"/>
	</g>
	<g id="Group_109" transform="translate(-220.764 -503.897)">
		<g>
			<path class="st1" d="M296.9,857.4h-10.4v-1.6c0-0.9,0.1-1.1,1.3-1.9l7.8-5.2V845l-8.9,5.9c-2.9,2-3.3,2.6-3.3,5.5v4.1H297
				c1.5,0,2,0.5,2,1.8v4.2h-37.8v-18h-3.3v18h-6.1v-18h-3.1v18h-6.2v-18h-3.1v27h-13.5c-1.5,0-2-0.5-2-1.8v-25.3h-3.1v24.7
				c0,3.7,1.6,5.3,5.1,5.3h16.6v-9h59.4v-6.7C301.8,859.1,300.3,857.4,296.9,857.4z"/>
			<path class="st1" d="M315.7,855.7h-3v10.8h-2.3v-10.8h-3.1v18c0,1.3-0.5,1.8-1.9,1.8h-1.2v3.1h1.2c3.4,0,5-1.7,5-5.4v-3.6h5.4
				L315.7,855.7z"/>
			<polygon class="st1" points="313.9,873.8 311.9,876.4 313.9,878.9 316,876.4 			"/>
		</g>
		<g>
			<polygon class="st1" points="245.9,877 246.5,877.8 247.5,876.5 246.5,875.2 245.9,876 245.3,875.2 244.4,876.5 245.3,877.8 			
				"/>
			<path class="st1" d="M254.2,882.3v6.1h-1v-15.6h-1.5v15.6h-2.9v-8.6h-3.5c-1.7,0-2.4,0.8-2.4,2.6v7.5l9.8,0l1.4,0.1v2.8h3.5
				c1.6,0,2.4-0.9,2.4-2.6v-10.4h-3.5C254.9,879.7,254.2,880.4,254.2,882.3z M257.7,891.2h-2v-9.1c0-0.5,0.1-0.8,0.9-0.8h2v9.1
				C258.6,890.9,258.5,891.2,257.7,891.2z M244.4,882.1c0-0.6,0.2-0.8,0.8-0.8h2v7.1h-2.8V882.1z"/>
			<polygon class="st1" points="284.4,877 285.1,877.8 286,876.5 285.1,875.2 284.4,876 283.8,875.2 282.8,876.5 283.8,877.8 			"/>
			<path class="st1" d="M297.3,888.3h-1.4v-8.6h-3.5c-1.7,0-2.4,0.8-2.4,2.6v6.1h-4.7v-8.6h-1.5v8.6h-2.3v-1.7
				c0-1.7-0.8-2.6-2.4-2.6h-4.8v-4.4c0-0.4,0-0.5,0.5-0.9l3.6-2.5v-1.8l-4.2,2.8c-1.3,1-1.5,1.3-1.5,2.7v5.6h6.3
				c0.8,0,0.9,0.3,0.9,0.8v2h-17.8v-15.6h-1.5v17.1l20.9,0.1l8.3,0v2.8h3.5c1.6,0,2.4-0.9,2.4-2.6v-0.3h2.9v-17.1h-1.5V888.3z
				 M294.5,881.2v9.1c0,0.5-0.1,0.8-0.9,0.8h-2v-9.1c0-0.5,0.1-0.8,0.9-0.8H294.5z"/>
			<rect x="299.5" y="872.7" class="st1" width="1.5" height="17.1"/>
		</g>
	</g>
</g>
</svg>
