<?xml version="1.0" encoding="utf-8"?>
<!-- Generator: Adobe Illustrator 24.3.0, SVG Export Plug-In . SVG Version: 6.00 Build 0)  -->
<svg version="1.1" id="Layer_1" xmlns="http://www.w3.org/2000/svg" xmlns:xlink="http://www.w3.org/1999/xlink" x="0px" y="0px"
	 viewBox="0 0 95.2 47.6" style="enable-background:new 0 0 95.2 47.6;" xml:space="preserve">
<style type="text/css">
	.st0{fill:#FFFFFF;}
</style>
<g id="Group_109" transform="translate(-220.764 -503.897)">
	<g>
		<path class="st0" d="M296.9,516.3h-10.4v-1.6c0-0.9,0.1-1.1,1.3-1.9l7.8-5.2v-3.7l-8.9,5.9c-2.9,2-3.3,2.6-3.3,5.5v4.1H297
			c1.5,0,2,0.5,2,1.8v4.2h-37.8v-18h-3.3v18h-6.1v-18h-3.1v18h-6.2v-18h-3.1v27h-13.5c-1.5,0-2-0.5-2-1.8v-25.3h-3.1V532
			c0,3.7,1.6,5.3,5.1,5.3h16.6v-9h59.4v-6.7C301.8,518,300.3,516.3,296.9,516.3z"/>
		<path class="st0" d="M315.7,514.6h-3v10.8h-2.3v-10.8h-3.1v18c0,1.3-0.5,1.8-1.9,1.8h-1.2v3.1h1.2c3.4,0,5-1.7,5-5.4v-3.6h5.4
			L315.7,514.6z"/>
		<polygon class="st0" points="313.9,532.7 311.9,535.3 313.9,537.8 316,535.3 		"/>
	</g>
	<g>
		<polygon class="st0" points="245.9,535.9 246.5,536.6 247.5,535.4 246.5,534.1 245.9,534.9 245.3,534.1 244.4,535.4 245.3,536.7 
					"/>
		<path class="st0" d="M254.2,541.1v6.1h-1v-15.6h-1.5v15.6h-2.9v-8.6h-3.5c-1.7,0-2.4,0.8-2.4,2.6v7.5h9.8l1.4,0.1v2.8h3.5
			c1.6,0,2.4-0.9,2.4-2.6v-10.4h-3.5C254.9,538.6,254.2,539.3,254.2,541.1z M257.7,550.1h-2V541c0-0.5,0.1-0.8,0.9-0.8h2v9.1
			C258.6,549.8,258.5,550.1,257.7,550.1z M244.4,540.9c0-0.6,0.2-0.8,0.8-0.8h2v7.1h-2.8V540.9z"/>
		<polygon class="st0" points="284.4,535.9 285.1,536.6 286,535.4 285.1,534.1 284.4,534.9 283.8,534.1 282.8,535.4 283.8,536.6 		
			"/>
		<path class="st0" d="M297.3,547.2h-1.4v-8.6h-3.5c-1.7,0-2.4,0.8-2.4,2.6v6.1h-4.7v-8.6h-1.5v8.6h-2.3v-1.7c0-1.7-0.8-2.6-2.4-2.6
			h-4.8v-4.4c0-0.4,0-0.5,0.5-0.9l3.6-2.5v-1.8l-4.2,2.8c-1.3,1-1.5,1.3-1.5,2.7v5.6h6.3c0.8,0,0.9,0.3,0.9,0.8v2h-17.8v-15.6h-1.5
			v17.1l20.9,0.1h8.3v2.8h3.5c1.6,0,2.4-0.9,2.4-2.6v-0.3h2.9v-17.1h-1.5v15.5H297.3z M294.5,540.1v9.1c0,0.5-0.1,0.8-0.9,0.8h-2
			v-9.1c0-0.5,0.1-0.8,0.9-0.8H294.5z"/>
		<rect x="299.5" y="531.6" class="st0" width="1.5" height="17.1"/>
	</g>
</g>
</svg>
