<svg xmlns="http://www.w3.org/2000/svg" width="167.074" height="54.142" viewBox="0 0 167.074 54.142">
  <g id="Group_10" data-name="Group 10" transform="translate(-144.934 -82.5)">
    <g id="Group_7" data-name="Group 7" transform="translate(145.434 83)">
      <path id="Path_50" data-name="Path 50" d="M164.215,99.333a7.8,7.8,0,0,0,5.3-7.656,7.27,7.27,0,0,0-2.125-5.335c-1.844-1.843-4.878-2.856-8.539-2.856h-13.2l-.216.215v32.077l.216.216h13.885c7.337,0,11.717-3.251,11.717-8.784C171.252,103.367,168.578,100.4,164.215,99.333Zm-4.634,14.812H147.424V100.508h12.34c5.831,0,9.452,2.586,9.452,6.839S165.616,114.145,159.581,114.145Zm-.413-15.489H147.424V85.339H158.8c5.379,0,8.721,2.481,8.721,6.567C167.522,96.883,163.207,98.656,159.168,98.656Z" transform="translate(-145.434 -82.936)" fill="#fff" stroke="#fff" stroke-width="1"/>
      <path id="Path_51" data-name="Path 51" d="M199.961,92.729a8.685,8.685,0,0,0-2.4-6.109c-2.1-2.05-5.318-3.133-9.317-3.133H175l-.215.215v32.077L175,116h1.558l.216-.216V102.29l10.978-.081L198.371,116h1.97l.171-.347-10.44-13.574C196.274,101.417,199.961,97.979,199.961,92.729Zm-23.188-7.39h11.378c6.149,0,9.821,2.8,9.821,7.573,0,4.646-3.886,7.531-10.141,7.531H176.773Z" transform="translate(-141.599 -82.936)" fill="#fff" stroke="#fff" stroke-width="1"/>
      <path id="Path_52" data-name="Path 52" d="M204.632,83.487l-.216.216v32.077l.216.216h1.558l.216-.216V83.7l-.216-.216Z" transform="translate(-137.726 -82.936)" fill="#fff" stroke="#fff" stroke-width="1"/>
      <path id="Path_53" data-name="Path 53" d="M240.883,109.685l-.3,0c-3.346,3.459-6.922,5.068-11.255,5.068-7.871,0-14.036-6.548-14.036-15,0-8.36,6.145-14.907,13.991-14.907A14.991,14.991,0,0,1,240.4,89.6l.305-.008,1.1-1.145-.01-.306C238.372,84.969,235.09,83,229.324,83c-9.012,0-16.07,7.382-16.07,16.895,0,9.373,7.018,16.714,15.979,16.714a17.014,17.014,0,0,0,12.756-5.563l0-.308Z" transform="translate(-136.571 -83)" fill="#fff" stroke="#fff" stroke-width="1"/>
      <path id="Path_54" data-name="Path 54" d="M269.712,83.856l-.151-.369-2.306.062-21.124,21.08V83.7l-.216-.216h-1.558l-.216.216v32.077l.216.216h1.558l.216-.216-.064-8.6,8.4-8.31,13.63,17.123h2.016l.169-.35-14.4-18.132Z" transform="translate(-132.535 -82.936)" fill="#fff" stroke="#fff" stroke-width="1"/>
      <path id="Path_55" data-name="Path 55" d="M284.051,98.714c-8.173-1.686-9.771-3.9-9.771-7.261,0-3.715,3.67-6.519,8.537-6.519a15.556,15.556,0,0,1,9.9,3.528l.305-.037.963-1.237-.036-.3a17.2,17.2,0,0,0-11.041-3.806c-6.054,0-10.617,3.659-10.617,8.6,0,4.738,3.21,7.309,11.078,8.872,8.176,1.694,9.727,3.825,9.727,7.259,0,4.026-3.68,6.839-8.95,6.839a16.145,16.145,0,0,1-11.674-4.8l-.308.01-1.054,1.145.012.3a18.338,18.338,0,0,0,12.93,5.189c6.5,0,11.032-3.632,11.032-8.922C295.085,102.859,291.889,100.291,284.051,98.714Z" transform="translate(-129.011 -82.989)" fill="#fff" stroke="#fff" stroke-width="1"/>
    </g>
    <g id="Group_9" data-name="Group 9" transform="translate(168.671 122.655)">
      <g id="Group_8" data-name="Group 8">
        <path id="Path_56" data-name="Path 56" d="M165.985,118.27h.634v13.039h-.634Z" transform="translate(-165.985 -118.046)" fill="#fff" stroke="#fff" stroke-width="1"/>
        <path id="Path_57" data-name="Path 57" d="M170.087,118.27h.577l9.538,11.959V118.27h.615v13.039h-.5L170.7,119.257v12.052h-.614Z" transform="translate(-165.449 -118.046)" fill="#fff" stroke="#fff" stroke-width="1"/>
        <path id="Path_58" data-name="Path 58" d="M186.552,118.847h-4.639v-.577h9.93v.577h-4.657v12.462h-.633Z" transform="translate(-163.904 -118.046)" fill="#fff" stroke="#fff" stroke-width="1"/>
        <path id="Path_59" data-name="Path 59" d="M193.015,118.27H202.2v.577h-8.55v5.608h7.73v.577h-7.73v5.7h8.644v.577h-9.277Z" transform="translate(-162.453 -118.046)" fill="#fff" stroke="#fff" stroke-width="1"/>
        <path id="Path_60" data-name="Path 60" d="M203.261,124.853v-.037a6.5,6.5,0,0,1,6.445-6.743,6.576,6.576,0,0,1,4.62,1.695l-.41.485a6.091,6.091,0,0,0-4.247-1.6,5.9,5.9,0,0,0-5.756,6.148v.037c0,3.372,2.18,6.166,5.85,6.166a7.066,7.066,0,0,0,4.452-1.677v-4h-4.638V124.7h5.253v4.862a7.6,7.6,0,0,1-5.086,1.993C205.646,131.559,203.261,128.5,203.261,124.853Z" transform="translate(-161.114 -118.072)" fill="#fff" stroke="#fff" stroke-width="1"/>
        <path id="Path_61" data-name="Path 61" d="M216.636,118.27h5.383a5.21,5.21,0,0,1,3.726,1.248,3.419,3.419,0,0,1,.95,2.421v.038c0,2.2-1.695,3.482-4.1,3.688l4.341,5.643h-.8l-4.247-5.57h-4.62v5.57h-.633Zm5.216,6.893c2.682,0,4.21-1.3,4.21-3.149v-.036c0-1.957-1.508-3.131-4.079-3.131h-4.713v6.316Z" transform="translate(-159.366 -118.046)" fill="#fff" stroke="#fff" stroke-width="1"/>
        <path id="Path_62" data-name="Path 62" d="M233.61,118.187h.6l6.185,13.133h-.69l-1.77-3.8h-8.066l-1.788,3.8h-.652Zm4.042,8.756-3.763-8.01-3.745,8.01Z" transform="translate(-157.956 -118.057)" fill="#fff" stroke="#fff" stroke-width="1"/>
        <path id="Path_63" data-name="Path 63" d="M243.33,118.847h-4.638v-.577h9.928v.577h-4.657v12.462h-.633Z" transform="translate(-156.484 -118.046)" fill="#fff" stroke="#fff" stroke-width="1"/>
        <path id="Path_64" data-name="Path 64" d="M249.794,118.27h9.183v.577h-8.55v5.608h7.73v.577h-7.73v5.7h8.643v.577h-9.276Z" transform="translate(-155.033 -118.046)" fill="#fff" stroke="#fff" stroke-width="1"/>
        <path id="Path_65" data-name="Path 65" d="M260.748,118.27h4.247c4.1,0,6.93,2.831,6.93,6.5v.037c0,3.669-2.831,6.5-6.93,6.5h-4.247Zm4.265,12.462a5.9,5.9,0,0,0,6.259-5.906v-.037a5.929,5.929,0,0,0-6.277-5.943h-3.614v11.886Z" transform="translate(-153.601 -118.046)" fill="#fff" stroke="#fff" stroke-width="1"/>
      </g>
    </g>
  </g>
</svg>
