<svg xmlns="http://www.w3.org/2000/svg" width="137.085" height="478.642" viewBox="0 0 137.085 478.642">
  <g id="Group_6" data-name="Group 6" transform="translate(-618.5 743.5)">
    <g id="Group_5" data-name="Group 5" transform="translate(619 -743)">
      <g id="Group_4" data-name="Group 4">
        <path id="Path_17" data-name="Path 17" d="M918.3,271h-3.543V401.16l3.543-3.349Z" transform="translate(-888.517 -270.999)" fill="#e8e8e7" stroke="#e8e8e7" stroke-width="1"/>
        <path id="Path_18" data-name="Path 18" d="M914.754,770.014H918.3V595.208l-3.543,5.619Z" transform="translate(-888.517 -292.372)" fill="#e8e8e7" stroke="#e8e8e7" stroke-width="1"/>
        <path id="Path_19" data-name="Path 19" d="M914.754,415.244v2.831l3.543,1.631v-7.811Z" transform="translate(-888.517 -280.287)" fill="#e8e8e7" stroke="#e8e8e7" stroke-width="1"/>
        <path id="Path_20" data-name="Path 20" d="M918.3,424.245l-3.543-1.631V582.919L918.3,577.3Z" transform="translate(-888.517 -280.994)" fill="#e8e8e7" stroke="#e8e8e7" stroke-width="1"/>
        <path id="Path_21" data-name="Path 21" d="M924.186,769.027h3.542V580.248l-3.542,5.618Z" transform="translate(-889.139 -291.385)" fill="#e8e8e7" stroke="#e8e8e7" stroke-width="1"/>
        <path id="Path_22" data-name="Path 22" d="M927.728,423.173v-20.2l-3.542,3.349v15.217Z" transform="translate(-889.139 -279.699)" fill="#e8e8e7" stroke="#e8e8e7" stroke-width="1"/>
        <path id="Path_23" data-name="Path 23" d="M924.186,426.957V569.233l3.542-5.617V428.588Z" transform="translate(-889.139 -281.28)" fill="#e8e8e7" stroke="#e8e8e7" stroke-width="1"/>
        <path id="Path_24" data-name="Path 24" d="M927.728,284.04h-3.542V393.691l3.542-3.348Z" transform="translate(-889.139 -271.859)" fill="#e8e8e7" stroke="#e8e8e7" stroke-width="1"/>
        <path id="Path_25" data-name="Path 25" d="M990.936,460.279v12.279l3.542-5.617v-6.662Z" transform="translate(-893.539 -283.477)" fill="#e8e8e7" stroke="#e8e8e7" stroke-width="1"/>
        <path id="Path_26" data-name="Path 26" d="M990.936,479.991V762.048h3.542V474.373Z" transform="translate(-893.539 -284.406)" fill="#e8e8e7" stroke="#e8e8e7" stroke-width="1"/>
        <rect id="Rectangle_2" data-name="Rectangle 2" width="3.541" height="293.93" transform="translate(106.218 183.712)" fill="#e8e8e7" stroke="#e8e8e7" stroke-width="1"/>
        <rect id="Rectangle_3" data-name="Rectangle 3" width="3.542" height="215.364" transform="translate(8.708 262.278)" fill="#e8e8e7" stroke="#e8e8e7" stroke-width="1"/>
        <rect id="Rectangle_4" data-name="Rectangle 4" width="3.542" height="210.936" transform="translate(0 266.706)" fill="#e8e8e7" stroke="#e8e8e7" stroke-width="1"/>
        <rect id="Rectangle_5" data-name="Rectangle 5" width="3.541" height="219.793" transform="translate(17.442 257.849)" fill="#e8e8e7" stroke="#e8e8e7" stroke-width="1"/>
        <rect id="Rectangle_6" data-name="Rectangle 6" width="3.542" height="94.659" transform="translate(123.8 382.983)" fill="#e8e8e7" stroke="#e8e8e7" stroke-width="1"/>
        <rect id="Rectangle_7" data-name="Rectangle 7" width="3.542" height="90.232" transform="translate(132.543 387.41)" fill="#e8e8e7" stroke="#e8e8e7" stroke-width="1"/>
        <rect id="Rectangle_8" data-name="Rectangle 8" width="3.542" height="99.088" transform="translate(115.032 378.554)" fill="#e8e8e7" stroke="#e8e8e7" stroke-width="1"/>
        <path id="Path_27" data-name="Path 27" d="M937.393,426.726V393.837l-3.542,3.349V425.1Z" transform="translate(-889.776 -279.097)" fill="#e8e8e7" stroke="#e8e8e7" stroke-width="1"/>
        <path id="Path_28" data-name="Path 28" d="M937.393,295.219h-3.542v90.676l3.542-3.348Z" transform="translate(-889.776 -272.596)" fill="#e8e8e7" stroke="#e8e8e7" stroke-width="1"/>
        <path id="Path_29" data-name="Path 29" d="M933.851,431.407v123.8l3.542-5.617V433.037Z" transform="translate(-889.776 -281.574)" fill="#e8e8e7" stroke="#e8e8e7" stroke-width="1"/>
        <path id="Path_30" data-name="Path 30" d="M933.851,768.017h3.542v-203.1l-3.542,5.618Z" transform="translate(-889.776 -290.375)" fill="#e8e8e7" stroke="#e8e8e7" stroke-width="1"/>
        <path id="Path_31" data-name="Path 31" d="M943.749,435.964V540.85l3.542-5.617V437.595Z" transform="translate(-890.429 -281.874)" fill="#e8e8e7" stroke="#e8e8e7" stroke-width="1"/>
        <path id="Path_32" data-name="Path 32" d="M943.749,766.982h3.542V549.218l-3.542,5.618Z" transform="translate(-890.429 -289.34)" fill="#e8e8e7" stroke="#e8e8e7" stroke-width="1"/>
        <path id="Path_33" data-name="Path 33" d="M947.291,430.365V384.478l-3.542,3.349v40.908Z" transform="translate(-890.429 -278.48)" fill="#e8e8e7" stroke="#e8e8e7" stroke-width="1"/>
        <path id="Path_34" data-name="Path 34" d="M947.291,304.535h-3.542v73.234l3.542-3.348Z" transform="translate(-890.429 -273.21)" fill="#e8e8e7" stroke="#e8e8e7" stroke-width="1"/>
        <path id="Path_35" data-name="Path 35" d="M953.3,440.36V527l3.543-5.618V441.991Z" transform="translate(-891.058 -282.164)" fill="#e8e8e7" stroke="#e8e8e7" stroke-width="1"/>
        <path id="Path_36" data-name="Path 36" d="M953.3,765.984h3.543V534.073l-3.543,5.619Z" transform="translate(-891.058 -288.341)" fill="#e8e8e7" stroke="#e8e8e7" stroke-width="1"/>
        <path id="Path_37" data-name="Path 37" d="M956.839,433.876V375.449L953.3,378.8v53.446Z" transform="translate(-891.058 -277.885)" fill="#e8e8e7" stroke="#e8e8e7" stroke-width="1"/>
        <path id="Path_38" data-name="Path 38" d="M956.839,315.714H953.3v54.362l3.543-3.349Z" transform="translate(-891.058 -273.947)" fill="#e8e8e7" stroke="#e8e8e7" stroke-width="1"/>
        <path id="Path_39" data-name="Path 39" d="M962.729,444.7v68.609l3.542-5.617V446.334Z" transform="translate(-891.68 -282.45)" fill="#e8e8e7" stroke="#e8e8e7" stroke-width="1"/>
        <path id="Path_40" data-name="Path 40" d="M966.271,437.344V366.531l-3.542,3.349v65.833Z" transform="translate(-891.68 -277.297)" fill="#e8e8e7" stroke="#e8e8e7" stroke-width="1"/>
        <path id="Path_41" data-name="Path 41" d="M966.271,326.893h-3.542v35.591l3.542-3.348Z" transform="translate(-891.68 -274.684)" fill="#e8e8e7" stroke="#e8e8e7" stroke-width="1"/>
        <path id="Path_42" data-name="Path 42" d="M962.729,765h3.542V519.112l-3.542,5.618Z" transform="translate(-891.68 -287.355)" fill="#e8e8e7" stroke="#e8e8e7" stroke-width="1"/>
        <path id="Path_43" data-name="Path 43" d="M975.587,338.071h-3.543V355l3.543-3.349Z" transform="translate(-892.294 -275.421)" fill="#e8e8e7" stroke="#e8e8e7" stroke-width="1"/>
        <path id="Path_44" data-name="Path 44" d="M972.045,764.023h3.543V504.336l-3.543,5.619Z" transform="translate(-892.294 -286.381)" fill="#e8e8e7" stroke="#e8e8e7" stroke-width="1"/>
        <path id="Path_45" data-name="Path 45" d="M975.587,440.768V357.722l-3.543,3.35v78.066Z" transform="translate(-892.294 -276.716)" fill="#e8e8e7" stroke="#e8e8e7" stroke-width="1"/>
        <path id="Path_46" data-name="Path 46" d="M972.045,448.992v50.8l3.543-5.618V450.623Z" transform="translate(-892.294 -282.733)" fill="#e8e8e7" stroke="#e8e8e7" stroke-width="1"/>
        <path id="Path_47" data-name="Path 47" d="M981.593,442.648l3.542,1.63V348.693l-3.542,3.349Z" transform="translate(-892.923 -276.121)" fill="#e8e8e7" stroke="#e8e8e7" stroke-width="1"/>
        <path id="Path_48" data-name="Path 48" d="M981.593,763.025h3.542V489.192l-3.542,5.618Z" transform="translate(-892.923 -285.383)" fill="#e8e8e7" stroke="#e8e8e7" stroke-width="1"/>
        <path id="Path_49" data-name="Path 49" d="M981.593,453.388v32.554l3.542-5.617V455.019Z" transform="translate(-892.923 -283.023)" fill="#e8e8e7" stroke="#e8e8e7" stroke-width="1"/>
      </g>
    </g>
  </g>
</svg>
