<svg xmlns="http://www.w3.org/2000/svg" width="27.125" height="17.75" viewBox="0 0 27.125 17.75">
  <g id="Icon_ionic-ios-menu" data-name="Icon ionic-ios-menu" transform="translate(-4 -9.625)">
    <path id="Path_157" data-name="Path 157" d="M29.536,25.875H5.589A1.11,1.11,0,0,1,4.5,24.75h0a1.11,1.11,0,0,1,1.089-1.125H29.536a1.11,1.11,0,0,1,1.089,1.125h0A1.11,1.11,0,0,1,29.536,25.875Z" transform="translate(0 1)" fill="#1d1d1b" stroke="#000" stroke-width="1"/>
    <path id="Path_156" data-name="Path 156" d="M18.875,19.125H5.125c-.344,0-.625-.506-.625-1.125h0c0-.619.281-1.125.625-1.125h13.75c.344,0,.625.506.625,1.125h0C19.5,18.619,19.219,19.125,18.875,19.125Z" transform="translate(0 0.5)" fill="#1d1d1b" stroke="#000" stroke-width="1"/>
    <path id="Path_155" data-name="Path 155" d="M29.536,12.375H5.589A1.11,1.11,0,0,1,4.5,11.25h0a1.11,1.11,0,0,1,1.089-1.125H29.536a1.11,1.11,0,0,1,1.089,1.125h0A1.11,1.11,0,0,1,29.536,12.375Z" fill="#1d1d1b" stroke="#000" stroke-width="1"/>
  </g>
</svg>
