<svg xmlns="http://www.w3.org/2000/svg" width="31.016" height="31.016" viewBox="0 0 31.016 31.016">
  <g id="Icon_feather-instagram" data-name="Icon feather-instagram" transform="translate(1.5 1.5)">
    <path id="Path_73" data-name="Path 73" d="M10,3H24.012a7,7,0,0,1,7,7V24.012a7,7,0,0,1-7,7H10a7,7,0,0,1-7-7V10a7,7,0,0,1,7-7Z" transform="translate(-3 -3)" fill="none" stroke="#fff" stroke-linecap="round" stroke-linejoin="round" stroke-width="3"/>
    <path id="Path_74" data-name="Path 74" d="M23.211,16.716A5.6,5.6,0,1,1,18.49,12a5.6,5.6,0,0,1,4.721,4.721Z" transform="translate(-3.6 -3.591)" fill="none" stroke="#fff" stroke-linecap="round" stroke-linejoin="round" stroke-width="3"/>
    <path id="Path_75" data-name="Path 75" d="M26.25,9.75h0" transform="translate(-4.538 -3.446)" fill="none" stroke="#fff" stroke-linecap="round" stroke-linejoin="round" stroke-width="3"/>
  </g>
</svg>
