<svg xmlns="http://www.w3.org/2000/svg" width="53.16" height="53.256" viewBox="0 0 53.16 53.256">
  <path id="Icon_feather-phone-call" data-name="Icon feather-phone-call" d="M34.138,11.075a11.969,11.969,0,0,1,9.455,9.455M34.138,1.5a21.543,21.543,0,0,1,19.03,19.006m-2.394,19.1v7.181a4.787,4.787,0,0,1-5.218,4.787A47.371,47.371,0,0,1,24.9,44.228,46.677,46.677,0,0,1,10.536,29.865,47.371,47.371,0,0,1,3.187,9.112,4.787,4.787,0,0,1,7.951,3.894h7.181a4.787,4.787,0,0,1,4.787,4.117,30.735,30.735,0,0,0,1.676,6.726,4.787,4.787,0,0,1-1.077,5.051l-3.04,3.04A38.3,38.3,0,0,0,31.84,37.19l3.04-3.04a4.787,4.787,0,0,1,5.051-1.077,30.735,30.735,0,0,0,6.726,1.676A4.787,4.787,0,0,1,50.774,39.608Z" transform="translate(-1.666 0.156)" fill="none" stroke="#fff" stroke-linecap="round" stroke-linejoin="round" stroke-width="3"/>
</svg>
