<svg xmlns="http://www.w3.org/2000/svg" width="29.416" height="29.416" viewBox="0 0 29.416 29.416">
  <path id="Icon_awesome-twitter-square" data-name="Icon awesome-twitter-square" d="M26.265,2.25H3.152A3.153,3.153,0,0,0,0,5.4V28.515a3.153,3.153,0,0,0,3.152,3.152H26.265a3.153,3.153,0,0,0,3.152-3.152V5.4A3.153,3.153,0,0,0,26.265,2.25ZM23.054,12.677c.013.184.013.374.013.558A12.169,12.169,0,0,1,10.814,25.488,12.2,12.2,0,0,1,4.2,23.557a9.073,9.073,0,0,0,1.037.053,8.634,8.634,0,0,0,5.345-1.839A4.312,4.312,0,0,1,6.56,18.784,4.641,4.641,0,0,0,8.5,18.7a4.307,4.307,0,0,1-3.447-4.229v-.053A4.3,4.3,0,0,0,7,14.969a4.3,4.3,0,0,1-1.917-3.585A4.253,4.253,0,0,1,5.667,9.21a12.228,12.228,0,0,0,8.877,4.5,4.316,4.316,0,0,1,7.348-3.933,8.439,8.439,0,0,0,2.732-1.037,4.3,4.3,0,0,1-1.891,2.37,8.57,8.57,0,0,0,2.482-.67A9.064,9.064,0,0,1,23.054,12.677Z" transform="translate(0 -2.25)" fill="#fff"/>
</svg>
