<svg xmlns="http://www.w3.org/2000/svg" width="29.416" height="29.416" viewBox="0 0 29.416 29.416">
  <path id="Icon_awesome-facebook-square" data-name="Icon awesome-facebook-square" d="M26.265,2.25H3.152A3.152,3.152,0,0,0,0,5.4V28.515a3.152,3.152,0,0,0,3.152,3.152h9.012v-10H8.027V16.958h4.137V13.37c0-4.081,2.429-6.335,6.151-6.335a25.061,25.061,0,0,1,3.646.318v4.005H19.907A2.354,2.354,0,0,0,17.253,13.9v3.057h4.516l-.722,4.707H17.253v10h9.012a3.152,3.152,0,0,0,3.152-3.152V5.4A3.152,3.152,0,0,0,26.265,2.25Z" transform="translate(0 -2.25)" fill="#fff"/>
</svg>
