<svg id="Group_67" data-name="Group 67" xmlns="http://www.w3.org/2000/svg" width="85.761" height="91.77" viewBox="0 0 85.761 91.77">
  <g id="Group_63" data-name="Group 63" transform="translate(0 0)">
    <path id="Path_144" data-name="Path 144" d="M150.673,299.876v-29.55l-16.43-25.143" transform="translate(-116.885 -208.106)" fill="none" stroke="#fff" stroke-miterlimit="10" stroke-width="3"/>
    <path id="Path_145" data-name="Path 145" d="M147.81,299.876v-29.55l16.429-25.143" transform="translate(-96.642 -208.106)" fill="none" stroke="#fff" stroke-miterlimit="10" stroke-width="3"/>
    <line id="Line_21" data-name="Line 21" y1="70.478" transform="translate(42.722 21.292)" fill="none" stroke="#fff" stroke-miterlimit="10" stroke-width="3"/>
    <path id="Path_146" data-name="Path 146" d="M141.635,245.793l6.943-6.943,6.943,6.943" transform="translate(-105.856 -217.557)" fill="none" stroke="#fff" stroke-miterlimit="10" stroke-width="3"/>
    <path id="Path_147" data-name="Path 147" d="M150.7,246.147l9.772-.964.964,9.772" transform="translate(-92.327 -208.106)" fill="none" stroke="#fff" stroke-miterlimit="10" stroke-width="3"/>
    <path id="Path_148" data-name="Path 148" d="M144.568,246.147l-9.772-.964-.964,9.772" transform="translate(-117.499 -208.106)" fill="none" stroke="#fff" stroke-miterlimit="10" stroke-width="3"/>
    <circle id="Ellipse_4" data-name="Ellipse 4" cx="33.802" cy="33.802" r="33.802" transform="translate(9.079 9.079)" fill="none" stroke="#fff" stroke-miterlimit="10" stroke-width="3"/>
    <line id="Line_22" data-name="Line 22" y2="5.788" transform="translate(42.722 0)" fill="none" stroke="#fff" stroke-miterlimit="10" stroke-width="3"/>
    <line id="Line_23" data-name="Line 23" x2="2.894" y2="5.013" transform="translate(21.303 5.824)" fill="none" stroke="#fff" stroke-miterlimit="10" stroke-width="3"/>
    <line id="Line_24" data-name="Line 24" x2="5.013" y2="2.894" transform="translate(5.665 21.578)" fill="none" stroke="#fff" stroke-miterlimit="10" stroke-width="3"/>
    <line id="Line_25" data-name="Line 25" x2="5.788" transform="translate(0 43.04)" fill="none" stroke="#fff" stroke-miterlimit="10" stroke-width="3"/>
    <line id="Line_26" data-name="Line 26" y1="2.894" x2="5.013" transform="translate(5.824 61.564)" fill="none" stroke="#fff" stroke-miterlimit="10" stroke-width="3"/>
    <line id="Line_27" data-name="Line 27" x1="5.013" y1="2.894" transform="translate(75.083 61.289)" fill="none" stroke="#fff" stroke-miterlimit="10" stroke-width="3"/>
    <line id="Line_28" data-name="Line 28" x1="5.788" transform="translate(79.973 42.722)" fill="none" stroke="#fff" stroke-miterlimit="10" stroke-width="3"/>
    <line id="Line_29" data-name="Line 29" x1="5.013" y2="2.894" transform="translate(74.924 21.303)" fill="none" stroke="#fff" stroke-miterlimit="10" stroke-width="3"/>
    <line id="Line_30" data-name="Line 30" x1="2.894" y2="5.013" transform="translate(61.289 5.665)" fill="none" stroke="#fff" stroke-miterlimit="10" stroke-width="3"/>
  </g>
</svg>
