<?xml version="1.0" encoding="utf-8"?>
<!-- Generator: Adobe Illustrator 24.3.0, SVG Export Plug-In . SVG Version: 6.00 Build 0)  -->
<svg version="1.1" id="Layer_1" xmlns="http://www.w3.org/2000/svg" xmlns:xlink="http://www.w3.org/1999/xlink" x="0px" y="0px"
	 viewBox="0 0 95.5 392.2" style="enable-background:new 0 0 95.5 392.2;" xml:space="preserve">
<style type="text/css">
	.st0{fill:#FFFFFF;stroke:#FFFFFF;}
</style>
<g id="Group_111" transform="translate(-139.5 -152.188)">
	<g id="Group_4" transform="translate(140 152.688)">
		<path id="Path_17" class="st0" d="M20.7,0h-2.5v90.4l2.5-2.3V0z"/>
		<path id="Path_18" class="st0" d="M18.2,331.7h2.5V210.3l-2.5,3.9V331.7z"/>
		<path id="Path_19" class="st0" d="M18.2,93.7v2l2.5,1.1v-5.4L18.2,93.7z"/>
		<path id="Path_20" class="st0" d="M20.7,99.5l-2.5-1.1v111.3l2.5-3.9V99.5z"/>
		<path id="Path_21" class="st0" d="M24.3,331.7h2.5V200.6l-2.5,3.9V331.7z"/>
		<path id="Path_22" class="st0" d="M26.8,99.6v-14l-2.5,2.3v10.6L26.8,99.6z"/>
		<path id="Path_23" class="st0" d="M24.3,101.2V200l2.5-3.9v-93.8L24.3,101.2z"/>
		<path id="Path_24" class="st0" d="M26.8,8.5h-2.5v76.2l2.5-2.3V8.5z"/>
		<path id="Path_25" class="st0" d="M67.6,122.8v8.5l2.5-3.9v-4.6L67.6,122.8z"/>
		<path id="Path_26" class="st0" d="M67.6,135.8v195.9h2.5V131.9L67.6,135.8z"/>
		<rect id="Rectangle_2" x="73.8" y="127.6" class="st0" width="2.5" height="204.1"/>
		<rect id="Rectangle_3" x="6" y="182.2" class="st0" width="2.5" height="149.6"/>
		<rect id="Rectangle_4" y="185.2" class="st0" width="2.5" height="146.5"/>
		<rect id="Rectangle_5" x="12.1" y="179.1" class="st0" width="2.5" height="152.7"/>
		<rect id="Rectangle_6" x="86" y="266" class="st0" width="2.5" height="65.7"/>
		<rect id="Rectangle_7" x="92.1" y="269.1" class="st0" width="2.5" height="62.7"/>
		<rect id="Rectangle_8" x="79.9" y="262.9" class="st0" width="2.5" height="68.8"/>
		<path id="Path_27" class="st0" d="M33.1,102.5V79.7L30.6,82v19.4L33.1,102.5z"/>
		<path id="Path_28" class="st0" d="M33.1,15.7h-2.5v63l2.5-2.3V15.7z"/>
		<path id="Path_29" class="st0" d="M30.6,104.1v86l2.5-3.9v-81L30.6,104.1z"/>
		<path id="Path_30" class="st0" d="M30.6,331.7h2.5V190.7l-2.5,3.9V331.7z"/>
		<path id="Path_31" class="st0" d="M37,107v72.8l2.5-3.9v-67.8L37,107z"/>
		<path id="Path_32" class="st0" d="M37,331.7h2.5V180.5l-2.5,3.9V331.7z"/>
		<path id="Path_33" class="st0" d="M39.5,105.5V73.6L37,75.9v28.4L39.5,105.5z"/>
		<path id="Path_34" class="st0" d="M39.5,21.8H37v50.9l2.5-2.3V21.8z"/>
		<path id="Path_35" class="st0" d="M43.2,109.9V170l2.5-3.9V111L43.2,109.9z"/>
		<path id="Path_36" class="st0" d="M43.2,331.7h2.5V170.7l-2.5,3.9V331.7z"/>
		<path id="Path_37" class="st0" d="M45.7,108.3V67.8l-2.5,2.3v37.1L45.7,108.3z"/>
		<path id="Path_38" class="st0" d="M45.7,29h-2.5v37.8l2.5-2.3L45.7,29z"/>
		<path id="Path_39" class="st0" d="M49.3,112.7v47.7l2.5-3.9v-42.6L49.3,112.7z"/>
		<path id="Path_40" class="st0" d="M51.8,111.2V62l-2.5,2.3V110L51.8,111.2z"/>
		<path id="Path_41" class="st0" d="M51.8,36.3h-2.5V61l2.5-2.3V36.3z"/>
		<path id="Path_42" class="st0" d="M49.3,331.7h2.5V161l-2.5,3.9V331.7z"/>
		<path id="Path_43" class="st0" d="M57.9,43.5h-2.5v11.8l2.5-2.3V43.5z"/>
		<path id="Path_44" class="st0" d="M55.4,331.7h2.5V151.4l-2.5,3.9V331.7z"/>
		<path id="Path_45" class="st0" d="M57.9,113.9V56.3l-2.5,2.3v54.2L57.9,113.9z"/>
		<path id="Path_46" class="st0" d="M55.4,115.5v35.3l2.5-3.9v-30.3L55.4,115.5z"/>
		<path id="Path_47" class="st0" d="M61.6,115.7l2.5,1.1V50.4l-2.5,2.3V115.7z"/>
		<path id="Path_48" class="st0" d="M61.6,331.7H64V141.6l-2.5,3.9V331.7z"/>
		<path id="Path_49" class="st0" d="M61.6,118.3v22.6L64,137v-17.6L61.6,118.3z"/>
	</g>
	<g id="Group_109" transform="translate(-220.764 -503.897)">
		<path id="Path_345" class="st0" d="M436.6,1011.1h-10.9l0-2.1c0-1.2,0.3-1.5,1.5-2.3l7.6-5.1v-2.5l-8.1,5.4
			c-2.8,1.9-3.1,2.4-3.1,5.1l0,3.6h13.1c1.7,0,2.5,0.6,2.5,2.3v4.7h-38.9v-18H398v18h-7.1v-18h-2.1v18h-7.2v-18h-2.1v27h-14
			c-1.7,0-2.5-0.6-2.5-2.3v-24.8h-2.1v24.2c0,3.4,1.4,4.8,4.6,4.8h16.1v-9h59.5v-6.2C441.1,1012.6,439.8,1011.1,436.6,1011.1z"/>
		<path id="Path_346" class="st0" d="M455,1009.4H453v10.8h-3.3v-10.8h-2.1v17.5c0,1.6-0.7,2.3-2.4,2.3h-0.7v2.1h0.7
			c3.1,0,4.5-1.5,4.5-4.9v-4.1h5.4L455,1009.4z"/>
		<path id="Path_347" class="st0" d="M453.7,1027.8l-1.4,1.8l1.4,1.7l1.4-1.7L453.7,1027.8z"/>
		<path id="Path_348" class="st0" d="M386.6,1042.3v-6.8c0-1.6,0.6-2.2,2-2.2h3v8.1h0.3v0.9L386.6,1042.3z M387.5,1041.4h3.1v-7.1
			h-2.1c-0.7,0-1,0.3-1,1V1041.4z M388,1030.1l0.6-0.8l0.5,0.7l0.6-0.7l0.6,0.8l-0.6,0.8l-0.6-0.7l-0.5,0.7L388,1030.1z"/>
		<rect id="Rectangle_53" x="391.7" y="1041.4" class="st0" width="2" height="0.9"/>
		<path id="Path_349" class="st0" d="M393.2,1042.3v-0.9h1.6v-14.6h0.9v14.6h0.2v0.9H393.2z"/>
		<path id="Path_350" class="st0" d="M395.6,1042.3v-0.9h1.5v-5.9c0-1.6,0.6-2.2,2-2.2h3v9.5c0,1.5-0.6,2.2-2,2.2h-3v-2.6
			L395.6,1042.3z M398.1,1044.1h2.1c0.8,0,1.1-0.3,1.1-1v-8.8h-2.1c-0.8,0-1.1,0.3-1.1,1V1044.1z"/>
		<path id="Path_351" class="st0" d="M403.4,1042.3v-15.5h0.9v14.6h0.2v0.9L403.4,1042.3z"/>
		<rect id="Rectangle_54" x="404.5" y="1041.4" class="st0" width="2" height="0.9"/>
		<rect id="Rectangle_55" x="406.2" y="1041.4" class="st0" width="2" height="0.9"/>
		<rect id="Rectangle_56" x="408" y="1041.4" class="st0" width="2" height="0.9"/>
		<rect id="Rectangle_57" x="409.8" y="1041.4" class="st0" width="2" height="0.9"/>
		<rect id="Rectangle_58" x="411.6" y="1041.4" class="st0" width="2" height="0.9"/>
		<path id="Path_352" class="st0" d="M413.1,1042.3v-0.9h8.3v-2.1c0-0.7-0.3-1-1.1-1h-5.7v-5c0-1.2,0.1-1.4,1.3-2.3l3.6-2.4v1.1
			l-3.3,2.3c-0.5,0.4-0.6,0.5-0.6,1v4.4h4.7c1.4,0,2,0.7,2,2.2v1.9h0.2v0.9L413.1,1042.3z"/>
		<path id="Path_353" class="st0" d="M422.3,1042.3v-0.9h2.6v-8.1h0.9v8.1h0.2v0.9L422.3,1042.3z M424,1030.1l0.6-0.8l0.6,0.7
			l0.6-0.7l0.6,0.8l-0.6,0.8l-0.6-0.7l-0.6,0.7L424,1030.1z"/>
		<rect id="Rectangle_59" x="425.9" y="1041.4" class="st0" width="2" height="0.9"/>
		<rect id="Rectangle_60" x="427.6" y="1041.4" class="st0" width="2" height="0.9"/>
		<path id="Path_354" class="st0" d="M429.2,1042.3v-0.9h1.5v-5.9c0-1.6,0.6-2.2,2-2.2h3v8.1h0.3v0.9h-0.3v0.5c0,1.5-0.6,2.2-2,2.2
			h-3v-2.6L429.2,1042.3z M431.7,1044.1h2.1c0.8,0,1.1-0.3,1.1-1v-8.8h-2.1c-0.8,0-1.1,0.3-1.1,1L431.7,1044.1z"/>
		<path id="Path_355" class="st0" d="M435.8,1042.3v-0.9h1.7v-14.6h0.9v15.5L435.8,1042.3z"/>
		<rect id="Rectangle_61" x="439.6" y="1026.8" class="st0" width="0.9" height="15.5"/>
	</g>
</g>
</svg>
