<svg xmlns="http://www.w3.org/2000/svg" width="95.518" height="392.163" viewBox="0 0 95.518 392.163">
  <g id="Group_111" data-name="Group 111" transform="translate(-139.5 -152.188)">
    <g id="Group_4" data-name="Group 4" transform="translate(140 152.688)">
      <path id="Path_17" data-name="Path 17" d="M917.214,271h-2.46v90.4l2.46-2.326Z" transform="translate(-896.531 -270.999)" fill="#fff" stroke="#fff" stroke-width="1"/>
      <path id="Path_18" data-name="Path 18" d="M914.754,716.619h2.46V595.208l-2.46,3.9Z" transform="translate(-896.531 -384.873)" fill="#fff" stroke="#fff" stroke-width="1"/>
      <path id="Path_19" data-name="Path 19" d="M914.754,414.221v1.966l2.46,1.133v-5.425Z" transform="translate(-896.531 -320.487)" fill="#fff" stroke="#fff" stroke-width="1"/>
      <path id="Path_20" data-name="Path 20" d="M917.214,423.747l-2.46-1.133v111.34l2.46-3.9Z" transform="translate(-896.531 -324.252)" fill="#fff" stroke="#fff" stroke-width="1"/>
      <path id="Path_21" data-name="Path 21" d="M924.186,711.365h2.46V580.248l-2.46,3.9Z" transform="translate(-899.844 -379.618)" fill="#fff" stroke="#fff" stroke-width="1"/>
      <path id="Path_22" data-name="Path 22" d="M926.646,417V402.976l-2.46,2.326v10.569Z" transform="translate(-899.844 -317.354)" fill="#fff" stroke="#fff" stroke-width="1"/>
      <path id="Path_23" data-name="Path 23" d="M924.186,426.957v98.818l2.46-3.9V428.09Z" transform="translate(-899.844 -325.777)" fill="#fff" stroke="#fff" stroke-width="1"/>
      <path id="Path_24" data-name="Path 24" d="M926.646,284.04h-2.46V360.2l2.46-2.326Z" transform="translate(-899.844 -275.58)" fill="#fff" stroke="#fff" stroke-width="1"/>
      <path id="Path_25" data-name="Path 25" d="M990.936,460.279v8.528l2.46-3.9v-4.627Z" transform="translate(-923.289 -337.481)" fill="#fff" stroke="#fff" stroke-width="1"/>
      <path id="Path_26" data-name="Path 26" d="M990.936,478.275v195.9h2.46V474.373Z" transform="translate(-923.289 -342.431)" fill="#fff" stroke="#fff" stroke-width="1"/>
      <rect id="Rectangle_2" data-name="Rectangle 2" width="2.46" height="204.149" transform="translate(73.774 127.597)" fill="#fff" stroke="#fff" stroke-width="1"/>
      <rect id="Rectangle_3" data-name="Rectangle 3" width="2.46" height="149.581" transform="translate(6.048 182.165)" fill="#fff" stroke="#fff" stroke-width="1"/>
      <rect id="Rectangle_4" data-name="Rectangle 4" width="2.46" height="146.506" transform="translate(0 185.241)" fill="#fff" stroke="#fff" stroke-width="1"/>
      <rect id="Rectangle_5" data-name="Rectangle 5" width="2.46" height="152.657" transform="translate(12.114 179.089)" fill="#fff" stroke="#fff" stroke-width="1"/>
      <rect id="Rectangle_6" data-name="Rectangle 6" width="2.46" height="65.746" transform="translate(85.985 266.001)" fill="#fff" stroke="#fff" stroke-width="1"/>
      <rect id="Rectangle_7" data-name="Rectangle 7" width="2.46" height="62.671" transform="translate(92.058 269.076)" fill="#fff" stroke="#fff" stroke-width="1"/>
      <rect id="Rectangle_8" data-name="Rectangle 8" width="2.46" height="68.821" transform="translate(79.895 262.925)" fill="#fff" stroke="#fff" stroke-width="1"/>
      <path id="Path_27" data-name="Path 27" d="M936.311,416.68V393.837l-2.46,2.326v19.384Z" transform="translate(-903.239 -314.144)" fill="#fff" stroke="#fff" stroke-width="1"/>
      <path id="Path_28" data-name="Path 28" d="M936.311,295.219h-2.46V358.2l2.46-2.326Z" transform="translate(-903.239 -279.506)" fill="#fff" stroke="#fff" stroke-width="1"/>
      <path id="Path_29" data-name="Path 29" d="M933.851,431.407V517.4l2.46-3.9V432.539Z" transform="translate(-903.239 -327.34)" fill="#fff" stroke="#fff" stroke-width="1"/>
      <path id="Path_30" data-name="Path 30" d="M933.851,705.981h2.46V564.918l-2.46,3.9Z" transform="translate(-903.239 -374.234)" fill="#fff" stroke="#fff" stroke-width="1"/>
      <path id="Path_31" data-name="Path 31" d="M943.749,435.964v72.849l2.46-3.9V437.1Z" transform="translate(-906.715 -328.941)" fill="#fff" stroke="#fff" stroke-width="1"/>
      <path id="Path_32" data-name="Path 32" d="M943.749,700.466h2.46V549.218l-2.46,3.9Z" transform="translate(-906.715 -368.72)" fill="#fff" stroke="#fff" stroke-width="1"/>
      <path id="Path_33" data-name="Path 33" d="M946.209,416.349V384.478l-2.46,2.326v28.412Z" transform="translate(-906.715 -310.857)" fill="#fff" stroke="#fff" stroke-width="1"/>
      <path id="Path_34" data-name="Path 34" d="M946.209,304.535h-2.46V355.4l2.46-2.325Z" transform="translate(-906.715 -282.778)" fill="#fff" stroke="#fff" stroke-width="1"/>
      <path id="Path_35" data-name="Path 35" d="M953.3,440.36v60.174l2.461-3.9V441.493Z" transform="translate(-910.069 -330.485)" fill="#fff" stroke="#fff" stroke-width="1"/>
      <path id="Path_36" data-name="Path 36" d="M953.3,695.146h2.461V534.073l-2.461,3.9Z" transform="translate(-910.069 -363.4)" fill="#fff" stroke="#fff" stroke-width="1"/>
      <path id="Path_37" data-name="Path 37" d="M955.757,416.029v-40.58l-2.461,2.327V414.9Z" transform="translate(-910.069 -307.686)" fill="#fff" stroke="#fff" stroke-width="1"/>
      <path id="Path_38" data-name="Path 38" d="M955.757,315.714H953.3v37.757l2.461-2.326Z" transform="translate(-910.069 -286.705)" fill="#fff" stroke="#fff" stroke-width="1"/>
      <path id="Path_39" data-name="Path 39" d="M962.729,444.7v47.652l2.46-3.9V445.836Z" transform="translate(-913.382 -332.01)" fill="#fff" stroke="#fff" stroke-width="1"/>
      <path id="Path_40" data-name="Path 40" d="M965.19,415.714V366.531l-2.46,2.326v45.725Z" transform="translate(-913.382 -304.553)" fill="#fff" stroke="#fff" stroke-width="1"/>
      <path id="Path_41" data-name="Path 41" d="M965.19,326.893h-2.46v24.72l2.46-2.325Z" transform="translate(-913.382 -290.631)" fill="#fff" stroke="#fff" stroke-width="1"/>
      <path id="Path_42" data-name="Path 42" d="M962.729,689.892h2.46V519.112l-2.46,3.9Z" transform="translate(-913.382 -358.145)" fill="#fff" stroke="#fff" stroke-width="1"/>
      <path id="Path_43" data-name="Path 43" d="M974.505,338.071h-2.461v11.755l2.461-2.326Z" transform="translate(-916.654 -294.558)" fill="#fff" stroke="#fff" stroke-width="1"/>
      <path id="Path_44" data-name="Path 44" d="M972.045,684.7h2.461V504.336l-2.461,3.9Z" transform="translate(-916.654 -352.956)" fill="#fff" stroke="#fff" stroke-width="1"/>
      <path id="Path_45" data-name="Path 45" d="M974.505,415.4v-57.68l-2.461,2.327v54.221Z" transform="translate(-916.654 -301.459)" fill="#fff" stroke="#fff" stroke-width="1"/>
      <path id="Path_46" data-name="Path 46" d="M972.045,448.992v35.286l2.461-3.9V450.125Z" transform="translate(-916.654 -333.517)" fill="#fff" stroke="#fff" stroke-width="1"/>
      <path id="Path_47" data-name="Path 47" d="M981.593,413.95l2.46,1.132V348.693l-2.46,2.326Z" transform="translate(-920.007 -298.288)" fill="#fff" stroke="#fff" stroke-width="1"/>
      <path id="Path_48" data-name="Path 48" d="M981.593,679.383h2.46V489.192l-2.46,3.9Z" transform="translate(-920.007 -347.636)" fill="#fff" stroke="#fff" stroke-width="1"/>
      <path id="Path_49" data-name="Path 49" d="M981.593,453.388V476l2.46-3.9V454.521Z" transform="translate(-920.007 -335.061)" fill="#fff" stroke="#fff" stroke-width="1"/>
    </g>
    <g id="Group_110" data-name="Group 110" transform="translate(59.001 -13)">
      <g id="Group_109" data-name="Group 109" transform="translate(81 505)">
        <path id="Path_826" data-name="Path 826" d="M-197.759,914.615H-208.7l.037-2.126c0-1.223.329-1.542,1.477-2.338l7.608-5.108v-2.5l-8.152,5.427c-2.793,1.862-3.119,2.4-3.119,5.108l-.037,3.612h13.131c1.751,0,2.464.64,2.464,2.289v4.734h-39V905.623h-2.135v18.087h-7.114V905.623h-2.135v18.087H-252.9V905.623h-2.131v27.133h-14.009c-1.751,0-2.464-.64-2.464-2.289V905.623h-2.135v24.315c0,3.4,1.367,4.841,4.6,4.841h16.14v-8.993h59.739v-6.223C-193.163,916.1-194.531,914.615-197.759,914.615Z" transform="translate(273.641 -902.541)" fill="#fff"/>
        <path id="Path_827" data-name="Path 827" d="M-131.923,918.754H-134v10.808h-3.352V918.754h-2.076v17.565c0,1.649-.69,2.289-2.391,2.289h-.746v2.129h.746c3.138,0,4.467-1.543,4.467-4.948v-4.151h5.428Z" transform="translate(226.333 -908.393)" fill="#fff"/>
        <path id="Path_828" data-name="Path 828" d="M-128.721,947.573l-1.436,1.756,1.436,1.7,1.383-1.7Z" transform="translate(221.855 -918.794)" fill="#fff"/>
      </g>
      <text id="المــتكـــــاملـة" transform="translate(100.172 552.351)" fill="#fff" font-size="22" font-family="GEModernLight-Light, GE Modern" font-weight="300"><tspan x="0" y="0">المــتكـــــاملـة</tspan></text>
    </g>
  </g>
</svg>
