<svg xmlns="http://www.w3.org/2000/svg" width="93.406" height="45.512" viewBox="0 0 93.406 45.512">
  <g id="Group_99" data-name="Group 99" transform="translate(-9470 128)">
    <g id="Group_98" data-name="Group 98" transform="translate(9310.958 -751.923)">
      <path id="Path_168" data-name="Path 168" d="M234.033,635.856H223.216l.037-2.1c0-1.208.325-1.524,1.459-2.311l7.519-5.047v-2.473l-8.057,5.363c-2.76,1.841-3.082,2.368-3.082,5.048l-.036,3.569h12.977c1.73,0,2.435.633,2.435,2.263v4.678H197.927V626.969h-2.11v17.875h-7.031V626.969h-2.11v17.875h-7.138V626.969h-2.107v26.814H163.587c-1.73,0-2.435-.632-2.435-2.262V626.969h-2.11V651c0,3.365,1.352,4.784,4.545,4.784h15.951V646.9h59.036v-6.15C238.574,637.327,237.223,635.856,234.033,635.856Z" fill="#fff"/>
      <path id="Path_169" data-name="Path 169" d="M252.343,634.163h-2.051v10.681h-3.313V634.163h-2.051v17.358c0,1.63-.681,2.262-2.364,2.262h-.737v2.1h.737c3.1,0,4.415-1.524,4.415-4.889v-4.1h5.364Z" fill="#fff"/>
      <path id="Path_170" data-name="Path 170" d="M251.082,652.364l-1.419,1.735,1.419,1.682,1.366-1.682Z" fill="#fff"/>
      <g id="Group_97" data-name="Group 97">
        <path id="Path_171" data-name="Path 171" d="M187.65,653.875l-.59.71-.51-.66-.64.75.64.78.54-.71.56.68.62-.77Z" fill="#fff"/>
        <path id="Path_172" data-name="Path 172" d="M196.91,657.905c-1.39,0-1.98.63-1.98,2.19v5.81h-1.37v-14.48h-.91v14.48h-3.21v-8h-2.96c-1.37,0-1.96.63-1.96,2.19v6.73h10.41v2.61h2.97c1.38,0,1.95-.63,1.95-2.16v-9.37Zm-8.36,8h-3.11v-6.1c0-.7.31-.99,1.04-.99h2.07Zm10.43,1.6c0,.73-.31,1.01-1.06,1.01h-2.05V659.8c0-.7.31-.99,1.06-.99h2.05Z" fill="#fff"/>
        <path id="Path_173" data-name="Path 173" d="M223.33,653.875l-.57.71-.56-.66-.64.75.64.78.56-.71.57.68.63-.77Z" fill="#fff"/>
        <path id="Path_174" data-name="Path 174" d="M234.91,651.425v14.48h-1.7v-8h-2.94c-1.39,0-1.98.63-1.98,2.19v5.81H223.4v-8h-.92v8h-2.52v-1.84c0-1.53-.57-2.19-1.96-2.19h-4.71v-4.33c0-.54.15-.68.64-1.03l3.27-2.26v-1.11l-3.53,2.4c-1.18.82-1.32,1.06-1.32,2.26v4.99H218c.76,0,1.06.29,1.06,1.01v2.1H202.11v-14.48h-.92v15.4h27.1v2.61h2.97c1.39,0,1.95-.63,1.95-2.16v-.45h2.62v-15.4Zm-2.57,16.08c0,.73-.3,1.01-1.06,1.01h-2.04V659.8c0-.7.3-.99,1.05-.99h2.05Z" fill="#fff"/>
        <path id="Path_175" data-name="Path 175" d="M237.029,666.824v-15.4h.895v15.4Z" fill="#fff"/>
      </g>
    </g>
  </g>
</svg>
