<svg xmlns="http://www.w3.org/2000/svg" width="95.126" height="95.124" viewBox="0 0 95.126 95.124">
  <g id="Group_33" data-name="Group 33" transform="translate(1.512 1.512)">
    <path id="Path_107" data-name="Path 107" d="M441.967,276.341c0,3.082,2.783,4.178,3.834,1.5l8.669-22.014c.791-2.007,2.771-2.007,3.562,0l8.669,22.014c1.051,2.673,3.834,1.577,3.834-1.5" transform="translate(-409.812 -187.64)" fill="none" stroke="#fff" stroke-linecap="round" stroke-miterlimit="10" stroke-width="3"/>
    <path id="Path_108" data-name="Path 108" d="M449.732,279.674c1.541,2.673,4.5,2.228,4.073-.612l-3.5-23.4c-.32-2.135,1.395-3.124,3.085-1.78L471.9,268.613c2.246,1.786,4.112-.552,2.568-3.222" transform="translate(-394.39 -189.739)" fill="none" stroke="#fff" stroke-linecap="round" stroke-miterlimit="10" stroke-width="3"/>
    <path id="Path_109" data-name="Path 109" d="M464.725,275.045c2.67,1.541,5.008-.323,3.222-2.568l-14.731-18.514c-1.344-1.69-.355-3.4,1.78-3.085l23.4,3.5c2.84.424,3.285-2.535.615-4.076" transform="translate(-388.686 -195.634)" fill="none" stroke="#fff" stroke-linecap="round" stroke-miterlimit="10" stroke-width="3"/>
    <path id="Path_110" data-name="Path 110" d="M475.544,271.073c3.085,0,4.178-2.783,1.508-3.834l-22.014-8.672c-2.01-.791-2.01-2.768,0-3.559l22.014-8.669c2.67-1.051,1.577-3.837-1.508-3.837" transform="translate(-386.844 -211.126)" fill="none" stroke="#fff" stroke-linecap="round" stroke-miterlimit="10" stroke-width="3"/>
    <path id="Path_111" data-name="Path 111" d="M478.881,261.138c2.67-1.541,2.225-4.5-.612-4.076l-23.4,3.5c-2.138.319-3.126-1.392-1.783-3.082l14.731-18.517c1.789-2.246-.552-4.109-3.222-2.568" transform="translate(-388.944 -224.377)" fill="none" stroke="#fff" stroke-linecap="round" stroke-miterlimit="10" stroke-width="3"/>
    <path id="Path_112" data-name="Path 112" d="M474.247,248.058c1.544-2.67-.322-5.011-2.568-3.222l-18.514,14.728c-1.69,1.347-3.4.355-3.082-1.78l3.5-23.4c.427-2.837-2.532-3.282-4.073-.612" transform="translate(-394.837 -231.995)" fill="none" stroke="#fff" stroke-linecap="round" stroke-miterlimit="10" stroke-width="3"/>
    <path id="Path_113" data-name="Path 113" d="M470.278,235.139c0-3.082-2.786-4.175-3.837-1.5l-8.669,22.014c-.791,2.01-2.768,2.01-3.56,0l-8.672-22.014c-1.051-2.67-3.834-1.577-3.834,1.5" transform="translate(-410.328 -231.74)" fill="none" stroke="#fff" stroke-linecap="round" stroke-miterlimit="10" stroke-width="3"/>
    <path id="Path_114" data-name="Path 114" d="M460.343,233.9c-1.544-2.67-4.5-2.225-4.076.612l3.5,23.4c.32,2.135-1.395,3.124-3.085,1.78l-18.514-14.731c-2.246-1.786-4.109.552-2.568,3.225" transform="translate(-423.58 -231.736)" fill="none" stroke="#fff" stroke-linecap="round" stroke-miterlimit="10" stroke-width="3"/>
    <path id="Path_115" data-name="Path 115" d="M447.262,236.62c-2.67-1.541-5.008.323-3.222,2.568L458.77,257.7c1.344,1.687.355,3.4-1.78,3.082l-23.4-3.5c-2.84-.424-3.285,2.535-.612,4.076" transform="translate(-431.199 -223.93)" fill="none" stroke="#fff" stroke-linecap="round" stroke-miterlimit="10" stroke-width="3"/>
    <path id="Path_116" data-name="Path 116" d="M434.346,242.762c-3.085,0-4.178,2.783-1.508,3.837l22.014,8.669c2.01.791,2.01,2.768,0,3.559L432.838,267.5c-2.67,1.051-1.577,3.837,1.508,3.837" transform="translate(-430.945 -210.609)" fill="none" stroke="#fff" stroke-linecap="round" stroke-miterlimit="10" stroke-width="3"/>
    <path id="Path_117" data-name="Path 117" d="M433.106,250.527c-2.67,1.541-2.225,4.5.615,4.076l23.4-3.5c2.135-.319,3.123,1.395,1.78,3.082L444.17,272.7c-1.786,2.246.553,4.109,3.222,2.568" transform="translate(-430.941 -195.187)" fill="none" stroke="#fff" stroke-linecap="round" stroke-miterlimit="10" stroke-width="3"/>
    <path id="Path_118" data-name="Path 118" d="M435.825,265.518c-1.544,2.673.322,5.011,2.568,3.225l18.514-14.731c1.69-1.344,3.4-.355,3.085,1.78l-3.5,23.4c-.424,2.837,2.532,3.282,4.076.612" transform="translate(-423.134 -189.481)" fill="none" stroke="#fff" stroke-linecap="round" stroke-miterlimit="10" stroke-width="3"/>
  </g>
</svg>
