<svg xmlns="http://www.w3.org/2000/svg" width="77.665" height="95.213" viewBox="0 0 77.665 95.213">
  <g id="Group_23" data-name="Group 23" transform="translate(1.508 1.53)">
    <path id="Path_97" data-name="Path 97" d="M324.938,247.456a382.282,382.282,0,0,1-34.532-17.269,1.892,1.892,0,0,0-1.9,0,382.48,382.48,0,0,1-34.529,17.269s-14,53.209,35.153,74.582a.823.823,0,0,0,.652,0C338.936,300.665,324.938,247.456,324.938,247.456Z" transform="translate(-252.133 -229.932)" fill="none" stroke="#fff" stroke-miterlimit="10" stroke-width="3"/>
    <g id="Group_22" data-name="Group 22" transform="translate(19.55 30.85)">
      <path id="Path_98" data-name="Path 98" d="M289.83,256.773A15.129,15.129,0,1,1,274.7,241.644" transform="translate(-259.572 -241.644)" fill="none" stroke="#fff" stroke-linecap="round" stroke-miterlimit="10" stroke-width="3"/>
      <path id="Path_99" data-name="Path 99" d="M262.89,252.744s4.693,7.639,5.286,7.344,21.448-18.032,21.448-18.032" transform="translate(-254.077 -240.962)" fill="none" stroke="#fff" stroke-linecap="round" stroke-miterlimit="10" stroke-width="3"/>
    </g>
  </g>
</svg>
